<svg id="Layer_1" data-name="Layer 1" xmlns="http://www.w3.org/2000/svg" viewBox="0 0 37.14 37.14"><defs><style>.cls-1{fill:#6d6d6d;}</style></defs><title>icon</title><path class="cls-1" d="M23.19,20.53a2.64,2.64,0,0,1-2.66-2.4,4.36,4.36,0,0,0,1-1,6.25,6.25,0,0,0,1.12-2.93A.36.36,0,0,0,22.8,14a4.78,4.78,0,0,0,.38-1.88A4.41,4.41,0,0,0,19,7.58,3.9,3.9,0,0,0,17.19,8a2.68,2.68,0,0,0-.63.11,3.48,3.48,0,0,0-2.19,2,5,5,0,0,0-.25,3.26,5.58,5.58,0,0,0,.23.69.42.42,0,0,0,.11.15,5.62,5.62,0,0,0,2.15,3.92A2.64,2.64,0,0,1,14,20.53a3.08,3.08,0,0,0-3,3.08v3.46a.45.45,0,0,0,.45.45H25.71a.45.45,0,0,0,.45-.45V23.61A3.07,3.07,0,0,0,23.19,20.53ZM16.81,9a1.82,1.82,0,0,1,.52-.08.67.67,0,0,0,.19-.05A3,3,0,0,1,19,8.48a3.51,3.51,0,0,1,3.33,3.66v.18a2,2,0,0,0-1.4-.59H17.82a.81.81,0,0,1-.5-.16.82.82,0,0,1-.28-.36.55.55,0,0,0-1,.07,4.17,4.17,0,0,1-1,1.82C14.53,11.24,15.34,9.39,16.81,9Zm-1.48,5a5,5,0,0,0,1.31-1.83l.14.12a1.75,1.75,0,0,0,1,.34h3.06a1.07,1.07,0,0,1,1,.63h0c0,2.54-1.47,4.6-3.28,4.6a2.81,2.81,0,0,1-2.15-1.13A5.42,5.42,0,0,1,15.33,14Zm2.13,4.57a3.21,3.21,0,0,0,1.11.2,3.31,3.31,0,0,0,1.12-.2A3.5,3.5,0,0,0,21,20.69l-2.35,3.36a.09.09,0,0,1-.07,0,.07.07,0,0,1-.06,0l-2.36-3.36A3.51,3.51,0,0,0,17.46,18.57Zm7.8,8.05H11.88v-3a2.19,2.19,0,0,1,2.18-2.19,3.73,3.73,0,0,0,1.31-.27l2.4,3.41a1,1,0,0,0,.8.42h0a1,1,0,0,0,.8-.42l2.4-3.41a3.76,3.76,0,0,0,1.31.27,2.19,2.19,0,0,1,2.18,2.19Z"/><path class="cls-1" d="M18.57,37.14A18.57,18.57,0,1,1,37.14,18.57,18.59,18.59,0,0,1,18.57,37.14ZM18.57,1A17.57,17.57,0,1,0,36.14,18.57,17.59,17.59,0,0,0,18.57,1Z"/></svg>