<svg id="Layer_1" data-name="Layer 1" xmlns="http://www.w3.org/2000/svg" viewBox="0 0 24.63 24.63"><defs><style>.cls-1{fill:#12518f;}</style></defs><title>icon</title><path class="cls-1" d="M19.57,0H5.06A5.07,5.07,0,0,0,0,5.06V19.57a5.06,5.06,0,0,0,5.06,5.06H19.57a5.05,5.05,0,0,0,5.06-5.06V5.06A5.06,5.06,0,0,0,19.57,0Zm-.18,9c0,.16,0,.31,0,.46A10,10,0,0,1,4,17.87a7.58,7.58,0,0,0,.84.05A7,7,0,0,0,9.2,16.41,3.51,3.51,0,0,1,5.91,14a3.68,3.68,0,0,0,.66.06,3.54,3.54,0,0,0,.93-.12,3.52,3.52,0,0,1-2.82-3.45v-.05a3.29,3.29,0,0,0,1.59.44A3.53,3.53,0,0,1,5.18,6.16a10,10,0,0,0,7.26,3.67,3.52,3.52,0,0,1,6-3.21,6.89,6.89,0,0,0,2.24-.85,3.58,3.58,0,0,1-1.55,2,7.2,7.2,0,0,0,2-.56A7.05,7.05,0,0,1,19.39,9Z"/></svg>