<svg id="Layer_1" data-name="Layer 1" xmlns="http://www.w3.org/2000/svg" viewBox="0 0 24.63 24.63"><defs><style>.cls-1{fill:#12518f;}</style></defs><title>icon</title><path class="cls-1" d="M19.57,0H5.06A5.07,5.07,0,0,0,0,5.06V19.57a5.06,5.06,0,0,0,5.06,5.06H19.57a5.05,5.05,0,0,0,5.06-5.06V5.06A5.06,5.06,0,0,0,19.57,0ZM7.39,21.22H3.69V9.33h3.7ZM5.54,7.7A2.15,2.15,0,1,1,7.68,5.56,2.14,2.14,0,0,1,5.54,7.7Zm15.7,13.52h-3.7V15.44c0-1.38,0-3.16-1.92-3.16s-2.22,1.51-2.22,3.06v5.88H9.71V9.33h3.54V11h.05A3.9,3.9,0,0,1,16.8,9c3.74,0,4.44,2.46,4.44,5.67Z"/></svg>