<svg id="Layer_1" data-name="Layer 1" xmlns="http://www.w3.org/2000/svg" viewBox="0 0 147.84 32.78"><defs><style>.cls-1{fill:#fff;}</style></defs><title>icon</title><path class="cls-1" d="M3.37,25.41A10.14,10.14,0,0,1,0,24.09l1.18-5.71a8.75,8.75,0,0,0,3.17,2.06,10.39,10.39,0,0,0,3.78.72c2.2,0,3.48-.87,3.84-2.63a1.64,1.64,0,0,0-.68-1.8A14.59,14.59,0,0,0,8.2,15.27q-1-.37-1.23-.48A7.56,7.56,0,0,1,3.5,12.38c-.76-1-.94-2.52-.52-4.52A9.66,9.66,0,0,1,4.77,4,9.54,9.54,0,0,1,8.38,1.07,12.09,12.09,0,0,1,13.61,0a13.23,13.23,0,0,1,3.47.39A12.77,12.77,0,0,1,20,1.63L18.8,7.38a11.56,11.56,0,0,0-2.74-2,7,7,0,0,0-3.24-.78,4.92,4.92,0,0,0-2.6.65A2.77,2.77,0,0,0,8.9,7.15a2,2,0,0,0,.24,1.58,2.71,2.71,0,0,0,1.18.94c.51.23,1.32.54,2.45.93A14,14,0,0,1,16,12.08a4.74,4.74,0,0,1,1.79,2.19,6.18,6.18,0,0,1,.11,3.52,10.21,10.21,0,0,1-1.83,4.08,9.5,9.5,0,0,1-3.48,2.87A10.52,10.52,0,0,1,7.91,25.8,22.71,22.71,0,0,1,3.37,25.41Z"/><path class="cls-1" d="M47,7.55q1.47,1.55.72,5.13L45.06,25.29H39.84L42.22,13.8q.68-3.23-2.76-3.23a4.71,4.71,0,0,0-2.56.7c-.08.6-.15,1.07-.22,1.41l-2.61,12.6H28.85l2.38-11.49q.68-3.22-2.76-3.22a6.23,6.23,0,0,0-2.72.63L22.83,25.28H17.61L21.17,8.12a20.19,20.19,0,0,1,4.46-1.45A23.94,23.94,0,0,1,30.78,6c2.36,0,4,.44,4.94,1.33a18.5,18.5,0,0,1,3.09-1,14.06,14.06,0,0,1,3-.35C44.25,6,46,6.53,47,7.55Z"/><path class="cls-1" d="M64.16,7.41q2.09,1.42,1.31,5.13L63.6,21.4a4.67,4.67,0,0,1-2.91,3.39,16.43,16.43,0,0,1-6.55,1.05q-7.77,0-6.45-6.41a7,7,0,0,1,2.47-4.22,7.85,7.85,0,0,1,5.06-1.52,9.24,9.24,0,0,1,2.52.35,7.49,7.49,0,0,1,2,.91L60,13.76q.66-3.22-3.25-3.22a10.19,10.19,0,0,0-3.22.57,10.37,10.37,0,0,0-2.83,1.39l1-4.89a10.63,10.63,0,0,1,3.12-1.15A18.68,18.68,0,0,1,59.17,6,8.65,8.65,0,0,1,64.16,7.41ZM57.69,21.69a1.3,1.3,0,0,0,.92-1l.6-2.89a7,7,0,0,0-2.6-.45,5.15,5.15,0,0,0-2.62.54,2.44,2.44,0,0,0-1.14,1.68,1.8,1.8,0,0,0,.46,1.75,2.5,2.5,0,0,0,1.81.66A8.57,8.57,0,0,0,57.69,21.69Z"/><path class="cls-1" d="M78.61,24.52c-.8-1-1-2.47-.61-4.38l1.94-9.37H77.35l.88-4.7h2.59l1.06-4.68h5.47L86.28,6.07h3.89l-.88,4.7H85.4l-1.79,8.67a2,2,0,0,0,.08,1.43,1.33,1.33,0,0,0,1.2.46,4.07,4.07,0,0,0,1.2-.2,4.26,4.26,0,0,0,1.17-.58l-1,4.71a7.3,7.3,0,0,1-3.42.78C80.84,26,79.42,25.53,78.61,24.52Z"/><path class="cls-1" d="M76.84,6l-.62,0A13.11,13.11,0,0,0,73,6.41a20.8,20.8,0,0,0-3.15,1A9.16,9.16,0,0,0,67.79,8.5L64.31,25.29h5.21l3-14.49a17.09,17.09,0,0,1,2.73-.18h.65Z"/><path class="cls-1" d="M135.36,13.65H123.67l2-11a2.11,2.11,0,0,0-2.12-2.6H120.3a.8.8,0,0,0-.74.63L117.3,13a.78.78,0,0,1-.74.63h-8l-2.65-4.87A1.38,1.38,0,0,0,104.66,8a2.14,2.14,0,0,0-2,1.71l-.75,4.07a4.64,4.64,0,0,0,4.68,5.73h8.92a.51.51,0,0,1,.51.63l-2.32,12a.51.51,0,0,0,.51.63h3a3.52,3.52,0,0,0,3.31-2.6l2.07-10.66h11.69a3.68,3.68,0,0,0,3.48-2.94A2.37,2.37,0,0,0,135.36,13.65Z"/><path class="cls-1" d="M146.87,5.34l1-5.22H131A3,3,0,0,0,128,2.56l-1.71,9.38,3.34.06h6.6A3.72,3.72,0,0,1,140,16.58h0a5.77,5.77,0,0,1-5.43,4.59h-9.93l-1,4.94h10.54a12,12,0,0,0,11.27-9.53h0c1-5.26-2.52-9.52-7.78-9.52h-4.48l.31-1.72Z"/><path class="cls-1" d="M107.41,21.36h-.73a6.1,6.1,0,0,1-5.35-2.81L99.92,26h6.64Z"/><path class="cls-1" d="M104,0,98,4.18l2.37,4.11,2.93-1.95A2.66,2.66,0,0,1,105,5.86a2.38,2.38,0,0,1,2,1l2.4,3.94L111.33,0Z"/></svg>