<svg id="Layer_1" data-name="Layer 1" xmlns="http://www.w3.org/2000/svg" viewBox="0 0 24.63 24.63"><defs><style>.cls-1{fill:#12518f;}</style></defs><title>icon</title><path class="cls-1" d="M19.57,0H5.06A5.06,5.06,0,0,0,0,5.06V19.57a5.05,5.05,0,0,0,5.06,5.06H19.57a5.05,5.05,0,0,0,5.06-5.06V5.06A5.06,5.06,0,0,0,19.57,0Zm2,15.88a5.72,5.72,0,0,1-5.72,5.72H8.75A5.72,5.72,0,0,1,3,15.88V8.75A5.72,5.72,0,0,1,8.75,3h7.13A5.72,5.72,0,0,1,21.6,8.75Z"/><path class="cls-1" d="M15.2,4.81H9.44A4.63,4.63,0,0,0,4.81,9.44V15.2a4.62,4.62,0,0,0,4.63,4.62H15.2a4.62,4.62,0,0,0,4.62-4.62V9.44A4.62,4.62,0,0,0,15.2,4.81ZM12.57,17.24a4.89,4.89,0,1,1,4.89-4.89A4.89,4.89,0,0,1,12.57,17.24Zm4.55-8.62a1.25,1.25,0,1,1,1.24-1.24A1.23,1.23,0,0,1,17.12,8.62Z"/><path class="cls-1" d="M12.57,9.4a2.95,2.95,0,1,0,2.94,2.95A2.95,2.95,0,0,0,12.57,9.4Z"/></svg>